<svg id="Layer_1" data-name="Layer 1" xmlns="http://www.w3.org/2000/svg" viewBox="0 0 1855.30869 1717.34181"><path d="M1149.62693,101q334.0301,0,532.50941,183.95735,98.0264,89.57894,153.7022,222.68672,52.01957,125.88387,52.04016,254.151,0,192.4285-107.7139,361.8649-116.182,183.97487-343.70934,263.83438-116.182,41.15589-217.844,41.14765-88.35848,0-132.52279-31.46634-44.19313-31.46015-63.53826-108.923-6.06832-22.97562-21.783-22.99416-18.15555,0-47.1995,29.046-125.887,124.66341-251.73273,124.6562-111.3619,0-178.51109-76.24756-67.16877-76.24345-67.16773-202.11085,0-222.66509,139.17817-412.69386Q672.77067,621.42527,770.81973,561.499q98.02948-59.90777,194.84985-59.90674,71.39559,0,160.9632,53.25135,29.047,18.15247,43.568,18.1535,13.30461,0,36.30905-12.10165,119.81245-58.09407,190.00714-58.092,85.92065,0,85.92888,71.40279,0,41.159-18.15349,111.34337-85.94845,330.39649-85.92888,429.63822,0,43.569,42.35884,43.568,58.091,0,130.706-72.614,60.5041-60.5041,95.6102-151.28188a512.74034,512.74034,0,0,0,35.09786-186.37768q0-192.42849-124.6562-317.08366-145.229-145.229-423.58638-145.23-370.335,0-618.43623,243.25849Q366.598,677.097,290.35254,897.34378q-49.64043,140.40585-49.61983,279.56549,0,267.48546,202.11084,380.01633,140.378,77.467,340.07988,77.45876c167.013,0,381.09364,26.09424,528.744-43.30226,37.91573-17.73946,253.11489-19.36263,253.11489,0,0,37.1227-112.90061,112.97065-164.52468,147.65036-182.29447,80.16516-370.44419,79.60925-602.81224,79.60925q-325.57644,0-517.98537-133.12838-136.77844-95.59167-199.69051-254.15306Q32.57,1312.46828,32.57,1175.70013q0-277.12867,151.27982-538.56126Q371.43047,312.81379,713.93891,178.4567,908.77744,101.02059,1149.62693,101Zm-82.29736,609.96405q-38.74586,0-99.23966,84.71768-42.37635,59.31146-71.40485,140.995-29.04394,81.69074-29.046,142.2041,0,55.68095,31.46633,55.66962,33.87018,0,82.29736-73.82312,47.1995-72.616,79.877-159.754,32.67444-87.138,32.67547-142.8097Q1093.95525,710.96406,1067.32957,710.96405Z" transform="translate(-32.57001 -101)" style="fill:#fff"/></svg>