<svg id="Layer_1" data-name="Layer 1" xmlns="http://www.w3.org/2000/svg" viewBox="0 0 1826.3 490.59"><defs><style>.cls-1{fill:#ff6a29;}</style></defs><path class="cls-1" d="M1621.79,793.64C1245.5,751.22,858.54,730.41,485,803.23,408.49,821.8,322.6,837.41,253,880c-67,41-50.42,145.28,28,166,0,0-17,84-16.64,84.32-41.72-7.39-81.91-22.62-120.94-40-262.2-126.15,76.5-288,217.24-314.9C774.78,681.81,1206.77,730,1621.79,793.64Z" transform="translate(-46.7 -723.08)"/><path class="cls-1" d="M284.53,1159.1,314.27,980h48.62L339.8,1119.93h72.41l-6.64,39.17Z" transform="translate(-46.7 -723.08)"/><path class="cls-1" d="M425.85,1159.1l22.39-134.32h48.27L474.12,1159.1Zm48.62-148.31q-9.8,0-15.82-6.52a17.27,17.27,0,0,1-4.46-15.52,25,25,0,0,1,9.62-15.61,27.92,27.92,0,0,1,17.84-6.43q9.87,0,15.74,6.43t4.37,15.61q-1.39,9-9.4,15.52A27.61,27.61,0,0,1,474.47,1010.79Z" transform="translate(-46.7 -723.08)"/><path class="cls-1" d="M656.37,1024.78,588.86,1159.1h-56l-22.74-134.32h49l7,88.85h1.4l36.38-88.85Z" transform="translate(-46.7 -723.08)"/><path class="cls-1" d="M707.44,1161.55q-21.51,0-35.68-8.26a44.79,44.79,0,0,1-19.94-23.79q-5.77-15.52-2.1-37.21,3.49-20.8,14.47-36.38a76.47,76.47,0,0,1,27.73-24.22q16.74-8.65,37.56-8.66,15.21,0,26.71,4.72A46.09,46.09,0,0,1,775,1041.48a49.8,49.8,0,0,1,9.84,21.73q2.58,12.74,0,28.73l-1.75,11.2H663l4.2-26.59h75.56a18.05,18.05,0,0,0-1.09-10.19,15,15,0,0,0-6.21-6.91,19.81,19.81,0,0,0-10.19-2.49,25.39,25.39,0,0,0-20,9.62,24.57,24.57,0,0,0-4.86,10.67l-5.24,28a22.88,22.88,0,0,0,.78,11.55,15.41,15.41,0,0,0,6.39,8q4.54,2.88,11.71,2.88a31.73,31.73,0,0,0,9.32-1.35,24.74,24.74,0,0,0,7.87-4,20.6,20.6,0,0,0,5.55-6.51H780.9A62.29,62.29,0,0,1,766,1140a69.51,69.51,0,0,1-25,15.91Q726.15,1161.55,707.44,1161.55Z" transform="translate(-46.7 -723.08)"/><path class="cls-1" d="M910.67,1213.67q-28.68,0-49.93-7.74t-34.55-22.6q-13.29-14.86-18-36.12t-.35-48.27a159.68,159.68,0,0,1,16.53-49.28A136.16,136.16,0,0,1,855,1011a134.23,134.23,0,0,1,43.46-25.23q24.79-8.92,54.88-8.92,27.1,0,47.7,7.39t33.76,21.68q13.15,14.31,18,35.12t.26,47.74a129,129,0,0,1-9.14,32.14,79.11,79.11,0,0,1-15.39,23.22,66.71,66.71,0,0,1-21.25,14.69,85,85,0,0,1-26.63,6.56q-13,1.23-18.19-1.22t-6-7a54.54,54.54,0,0,1-1-9.62H954.4q-2.89,5.43-10.94,9.45a71.46,71.46,0,0,1-18.36,6,75.78,75.78,0,0,1-20,1.31,56,56,0,0,1-18.49-4.63,43.59,43.59,0,0,1-15.7-11.81q-6.74-7.87-9.53-20.24t0-29.78q3-17.49,9.75-29.73A76.61,76.61,0,0,1,886.75,1048a72.28,72.28,0,0,1,18.37-12.24,73.12,73.12,0,0,1,17.79-5.68,64.06,64.06,0,0,1,20.64-.48,51.34,51.34,0,0,1,16.18,4.81q6.46,3.36,7.61,7.21h1.4l1.4-9.79h33.23l-14.69,89.55c-.41,3.49-.18,5.83.7,7a4.14,4.14,0,0,0,3.49,1.75q4.11,0,8.57-4.77t8.31-14.6q3.86-9.84,6.21-25,3.33-19.59.39-32.75t-10.18-21.17A47.15,47.15,0,0,0,989,1019.66a81.24,81.24,0,0,0-20.81-5.42,169,169,0,0,0-20.77-1.35q-22.65,0-40,6.77a90.2,90.2,0,0,0-29.78,18.54,95.93,95.93,0,0,0-19.9,26.85,112.44,112.44,0,0,0-10.31,31.79q-3.24,19.68-.09,34.72t12.42,25.18Q869,1166.9,884,1172.09t35.73,5.2a176.77,176.77,0,0,0,38.78-4.32,106.85,106.85,0,0,0,14.74-4.42l5.94,31.48a75.47,75.47,0,0,1-16.66,6.78,164,164,0,0,1-23.78,5A200.63,200.63,0,0,1,910.67,1213.67ZM925,1128.32q10.07,0,16.4-3.71a24.65,24.65,0,0,0,9.79-10.85,59.12,59.12,0,0,0,4.94-17.27,56.28,56.28,0,0,0,.4-14.39,15.91,15.91,0,0,0-5.69-10.84q-4.94-4.15-16.39-4.15a39,39,0,0,0-16.71,3.36,29,29,0,0,0-11.71,10,40.27,40.27,0,0,0-6.21,16.4,39.75,39.75,0,0,0,.3,15.26,19.78,19.78,0,0,0,7.52,11.72Q913.56,1128.32,925,1128.32Z" transform="translate(-46.7 -723.08)"/><path class="cls-1" d="M1178.62,1036q.78-8.65-4.2-13.59t-16.79-5a38.8,38.8,0,0,0-12.55,1.75,18.39,18.39,0,0,0-7.78,4.81,14,14,0,0,0-3.46,7.09,9.69,9.69,0,0,0,.14,5.72,10.48,10.48,0,0,0,3.58,4.68,26.37,26.37,0,0,0,7.09,3.76,74.8,74.8,0,0,0,10.53,3l14,3.15a96.32,96.32,0,0,1,24.1,8.26,47.73,47.73,0,0,1,15.35,12.11,36.59,36.59,0,0,1,7.38,15.65,50.7,50.7,0,0,1,0,18.89q-3,17.67-13.73,29.91t-28.07,18.63q-17.32,6.39-40.06,6.38-23.25,0-39.48-7t-23.44-21.34q-7.21-14.39-3.54-36.77h46.18q-1,8.22,1.75,13.82a18.22,18.22,0,0,0,9,8.48q6.21,2.88,15.48,2.89a41.69,41.69,0,0,0,13.47-1.93,21.61,21.61,0,0,0,8.83-5.33,14.47,14.47,0,0,0,3.94-7.79,9.54,9.54,0,0,0-1.4-7.17q-2.1-3.15-7.61-5.68a76.35,76.35,0,0,0-15.13-4.64L1125.1,1085q-22.83-5.25-34.46-17.32t-8.22-33.06a58.62,58.62,0,0,1,14.13-29.95,76,76,0,0,1,28.86-19.94q17.52-7.12,38.87-7.12,21.69,0,36.33,7.25t21.08,20.38q6.42,13.13,3.45,30.78Z" transform="translate(-46.7 -723.08)"/><path class="cls-1" d="M1218.15,1209.48l30.78-184.7h47.92l-3.85,23.44h1a50,50,0,0,1,9.71-12.55,46.9,46.9,0,0,1,14.17-9.18A45.7,45.7,0,0,1,1336,1023a43,43,0,0,1,24.09,7.08q10.8,7.1,15.83,22.3t1,39.53q-3.86,23.26-13.65,38.57t-23.08,22.82a55.36,55.36,0,0,1-27.64,7.52,39.36,39.36,0,0,1-16.31-3.1,29.16,29.16,0,0,1-11.1-8.48,30.59,30.59,0,0,1-5.82-12.2h-1l-11.89,72.41ZM1285,1091.94a48.73,48.73,0,0,0-.18,16.92q1.4,7.14,5.51,11t10.76,3.89A19.94,19.94,0,0,0,1313,1120a29.83,29.83,0,0,0,8.92-10.93,60.89,60.89,0,0,0,5.37-17.1,51.52,51.52,0,0,0,.27-17.09q-1.32-7.14-5.34-10.94t-10.67-3.8a20.59,20.59,0,0,0-12.07,3.8,30.3,30.3,0,0,0-9.18,10.94A55.05,55.05,0,0,0,1285,1091.94Z" transform="translate(-46.7 -723.08)"/><path class="cls-1" d="M1423.13,1161.2q-12.77,0-21.91-4.24a26.64,26.64,0,0,1-13.29-12.94q-4.15-8.7-1.88-22a48.69,48.69,0,0,1,6.91-18.81,43.88,43.88,0,0,1,12.59-12.76,60,60,0,0,1,16.92-7.66,100.47,100.47,0,0,1,19.9-3.45,179,179,0,0,0,18.45-2.19q7.08-1.31,10.58-3.58a9,9,0,0,0,4.2-6.12v-.35c.52-3.5-.39-6.18-2.76-8s-5.64-2.8-9.83-2.8a22.35,22.35,0,0,0-11.77,3,15.28,15.28,0,0,0-6.77,9.26H1400a53.41,53.41,0,0,1,11.5-22.6q8.7-10.37,23.18-16.62t34.58-6.25a85,85,0,0,1,25.19,3.37,51.09,51.09,0,0,1,18,9.35,33.06,33.06,0,0,1,10.06,14,33.56,33.56,0,0,1,1.35,17.36l-15.39,92h-45.12l3.14-18.89h-1a49.19,49.19,0,0,1-11.77,12.16,44.36,44.36,0,0,1-14.16,6.73A61.81,61.81,0,0,1,1423.13,1161.2Zm21-30.43a26.72,26.72,0,0,0,10.67-2.27,25.25,25.25,0,0,0,9-6.56,20.74,20.74,0,0,0,4.81-10.41l1.75-11.19a41.91,41.91,0,0,1-4.24,1.44c-1.54.44-3.15.86-4.81,1.27s-3.41.79-5.25,1.14-3.71.69-5.64,1a32.66,32.66,0,0,0-9.7,2.85,17.23,17.23,0,0,0-6.13,4.81,13.6,13.6,0,0,0-2.71,6.34q-.78,5.51,2.58,8.52T1444.12,1130.77Z" transform="translate(-46.7 -723.08)"/><path class="cls-1" d="M1595.93,1161.55q-21.87,0-36-8.7a46.35,46.35,0,0,1-19.85-24.31q-5.68-15.61-2.19-36.25a86.49,86.49,0,0,1,14.21-36.25,75.2,75.2,0,0,1,28-24.31q17.09-8.7,39-8.7,19.76,0,33,7.13a41.46,41.46,0,0,1,19,20.11q5.71,13,2.93,30.48h-44.78q.78-10.5-3.37-16.09t-12-5.6a20.71,20.71,0,0,0-11.85,3.63,28.79,28.79,0,0,0-9.18,10.93,60.27,60.27,0,0,0-5.56,18.32q-1.74,11-.39,18.32t5.42,10.93a15,15,0,0,0,10.37,3.63,20.67,20.67,0,0,0,10-2.49,23.24,23.24,0,0,0,8-7.34,35.92,35.92,0,0,0,5.11-11.85h44.78a71.64,71.64,0,0,1-13.38,30.95,67.08,67.08,0,0,1-25.63,20.29Q1615.88,1161.55,1595.93,1161.55Z" transform="translate(-46.7 -723.08)"/><path class="cls-1" d="M1744.94,1161.55q-21.51,0-35.68-8.26a44.83,44.83,0,0,1-19.94-23.79q-5.77-15.52-2.1-37.21,3.49-20.8,14.48-36.38a76.36,76.36,0,0,1,27.72-24.22q16.74-8.65,37.56-8.66,15.21,0,26.72,4.72a46.13,46.13,0,0,1,18.75,13.73,49.8,49.8,0,0,1,9.84,21.73q2.58,12.74,0,28.73l-1.75,11.2h-120l4.19-26.59h75.56a18.05,18.05,0,0,0-1.09-10.19,14.91,14.91,0,0,0-6.21-6.91,19.78,19.78,0,0,0-10.19-2.49,25.14,25.14,0,0,0-11.15,2.54,25.4,25.4,0,0,0-8.83,7.08,24.45,24.45,0,0,0-4.85,10.67l-5.25,28a22.77,22.77,0,0,0,.79,11.55,15.39,15.39,0,0,0,6.38,8q4.55,2.88,11.72,2.88a31.66,31.66,0,0,0,9.31-1.35,24.64,24.64,0,0,0,7.87-4,20.63,20.63,0,0,0,5.56-6.51h44.07a62.29,62.29,0,0,1-14.91,24.27,69.42,69.42,0,0,1-25,15.91Q1763.66,1161.55,1744.94,1161.55Z" transform="translate(-46.7 -723.08)"/><path class="cls-1" d="M1853.14,853.4c-5.84,2.52-11.57,5.33-17.52,7.52-29.07,10.7-58.1,9.22-87-.87a168,168,0,0,1-47.2-25.69,5.67,5.67,0,0,1-1.92-4.48c2.59-14.72,5.4-29.4,8.32-44.06.26-1.26,1.5-3,2.62-3.31,44.81-12.5,87.71-10.14,126.82,17.62,7.62,5.41,13.9,12.73,20.82,19.15a20.8,20.8,0,0,0,1.82,1.39l13.07,19.2ZM1793,836a15.89,15.89,0,1,0,4.57-22.14A16,16,0,0,0,1793,836Z" transform="translate(-46.7 -723.08)"/><path class="cls-1" d="M1662.69,872.58c16.32,1.1,28.39-5.44,35.72-19.91L1734,872.1c-4.63,2.09-8.84,4.47-13.36,5.94-18,5.85-35.69,4.71-53-2.72-1.3-.55-2.67-1-4-1.42Z" transform="translate(-46.7 -723.08)"/><path class="cls-1" d="M1690.64,731.44c7.62.61,15.36.55,22.83,1.95a68.07,68.07,0,0,1,38.1,21.12c1.25,1.35,2.26,2.92,3.33,4.33l-39.61,5c-1.39-15.93-10.38-26.45-26-31.5Z" transform="translate(-46.7 -723.08)"/><path class="cls-1" d="M1627.38,792.77c7.11-2.68,13.24-5.56,19.68-7.3,13.27-3.58,26.34-3,39,3.21,3.94,1.94,5.61,4.2,3.21,8.46-5.19-.41-10.59-1.25-16-1.15a74.11,74.11,0,0,0-15.78,2.4c7.81,8.59,18.06,11.49,28.52,13.92.27,5.68-.11,6.27-5.44,6.75-18.87,1.68-33.92-6.15-46.87-19C1631.75,798.07,1630.07,795.88,1627.38,792.77Z" transform="translate(-46.7 -723.08)"/><path class="cls-1" d="M390.11,933l9.63-58h15.73L408,920.31h23.44L429.28,933Z" transform="translate(-46.7 -723.08)"/><path class="cls-1" d="M435.85,933l7.25-43.47h15.62L451.47,933Zm15.74-48a6.66,6.66,0,0,1-5.13-2.11,5.6,5.6,0,0,1-1.44-5,8.15,8.15,0,0,1,3.11-5.06,9.08,9.08,0,0,1,5.78-2.08A6.57,6.57,0,0,1,459,872.8a5.76,5.76,0,0,1,1.42,5.06,8,8,0,0,1-3.05,5A8.89,8.89,0,0,1,451.59,885Z" transform="translate(-46.7 -723.08)"/><path class="cls-1" d="M510.46,889.52,488.61,933H470.49l-7.36-43.47H479l2.27,28.75h.45l11.77-28.75Z" transform="translate(-46.7 -723.08)"/><path class="cls-1" d="M527,933.78a22.63,22.63,0,0,1-11.54-2.67,14.5,14.5,0,0,1-6.46-7.7,23.33,23.33,0,0,1-.68-12A28.34,28.34,0,0,1,513,899.59a24.78,24.78,0,0,1,9-7.84,26.15,26.15,0,0,1,12.16-2.8,22.59,22.59,0,0,1,8.64,1.53,14.9,14.9,0,0,1,6.07,4.44,16.15,16.15,0,0,1,3.19,7,25.85,25.85,0,0,1,0,9.29l-.56,3.63H512.61l1.35-8.61h24.46a5.74,5.74,0,0,0-.36-3.29,4.75,4.75,0,0,0-2-2.24,6.34,6.34,0,0,0-3.29-.81,8.19,8.19,0,0,0-6.47,3.12,7.91,7.91,0,0,0-1.57,3.45l-1.7,9.06a7.28,7.28,0,0,0,.26,3.73,5,5,0,0,0,2.06,2.58,7,7,0,0,0,3.79.93,10,10,0,0,0,3-.44,7.88,7.88,0,0,0,2.55-1.3,6.63,6.63,0,0,0,1.79-2.11h14.27a20.19,20.19,0,0,1-4.83,7.86,22.59,22.59,0,0,1-8.09,5.15A30.53,30.53,0,0,1,527,933.78Z" transform="translate(-46.7 -723.08)"/><path class="cls-1" d="M570.34,933,580,875h25a23,23,0,0,1,10.9,2.35,13.81,13.81,0,0,1,6.4,6.76,18.43,18.43,0,0,1,.93,10.58,21.11,21.11,0,0,1-13.29,16.94,31,31,0,0,1-11.95,2.2H583l2-12.23h11.77a15.6,15.6,0,0,0,4.87-.69,7.44,7.44,0,0,0,3.4-2.21,7.93,7.93,0,0,0,1.7-4,6.66,6.66,0,0,0-.4-4.06,4.92,4.92,0,0,0-2.63-2.32,12.15,12.15,0,0,0-4.56-.75h-5.55L586.08,933Zm38.38-26.6L618.8,933H601.7L592,906.39Z" transform="translate(-46.7 -723.08)"/><path class="cls-1" d="M644.5,933.78q-7.08,0-11.65-2.81a15,15,0,0,1-6.41-7.87,23,23,0,0,1-.74-11.73,28.34,28.34,0,0,1,4.62-11.73,24.14,24.14,0,0,1,9-7.87A27.38,27.38,0,0,1,652,889q7,0,11.62,2.82a15.15,15.15,0,0,1,6.42,7.87,22.81,22.81,0,0,1,.75,11.73,28.2,28.2,0,0,1-4.64,11.73,24.51,24.51,0,0,1-9,7.87A27.35,27.35,0,0,1,644.5,933.78Zm1.92-11.54a5.84,5.84,0,0,0,3.72-1.34,10.68,10.68,0,0,0,2.89-3.79,21.42,21.42,0,0,0,1.77-5.86,18.8,18.8,0,0,0,.17-5.87,7.11,7.11,0,0,0-1.64-3.78,4.32,4.32,0,0,0-3.29-1.33,5.94,5.94,0,0,0-3.73,1.33,10.47,10.47,0,0,0-2.89,3.78,21.29,21.29,0,0,0-1.75,5.87,18.79,18.79,0,0,0-.19,5.86,6.92,6.92,0,0,0,1.64,3.79A4.33,4.33,0,0,0,646.42,922.24Z" transform="translate(-46.7 -723.08)"/><path class="cls-1" d="M694.31,933.78q-7.08,0-11.66-2.81a15,15,0,0,1-6.43-7.87,22.85,22.85,0,0,1-.7-11.73,27.91,27.91,0,0,1,4.59-11.73,24.34,24.34,0,0,1,9.06-7.87A27.38,27.38,0,0,1,701.78,889a22.3,22.3,0,0,1,10.68,2.31,13.47,13.47,0,0,1,6.15,6.51,17.3,17.3,0,0,1,.94,9.86H705.06a7.63,7.63,0,0,0-1.09-5.21,4.55,4.55,0,0,0-3.89-1.81,6.66,6.66,0,0,0-3.83,1.18,9.34,9.34,0,0,0-3,3.53,19.14,19.14,0,0,0-1.8,5.93,17.91,17.91,0,0,0-.13,5.93,6,6,0,0,0,1.76,3.54,4.84,4.84,0,0,0,3.35,1.18,6.66,6.66,0,0,0,3.24-.81,7.55,7.55,0,0,0,2.58-2.38,11.79,11.79,0,0,0,1.65-3.83h14.49a23.08,23.08,0,0,1-4.33,10,21.61,21.61,0,0,1-8.29,6.56A27.14,27.14,0,0,1,694.31,933.78Z" transform="translate(-46.7 -723.08)"/><path class="cls-1" d="M721.82,933l9.62-58h15.62l-9.62,58Zm15.73-10.3,3.17-18.57h2l13-14.6h17.55l-21.4,22.75h-4.41Zm11.1,10.3-7.13-17.21,12.11-11.09L766.54,933Z" transform="translate(-46.7 -723.08)"/><path class="cls-1" d="M789.06,933.78a22.63,22.63,0,0,1-11.54-2.67,14.5,14.5,0,0,1-6.46-7.7,23.33,23.33,0,0,1-.68-12,28.34,28.34,0,0,1,4.69-11.78,24.78,24.78,0,0,1,9-7.84A26.18,26.18,0,0,1,796.2,889a22.59,22.59,0,0,1,8.64,1.53,14.9,14.9,0,0,1,6.07,4.44,16.15,16.15,0,0,1,3.19,7,25.85,25.85,0,0,1,0,9.29l-.56,3.63H774.69l1.36-8.61H800.5a5.83,5.83,0,0,0-.35-3.29,4.85,4.85,0,0,0-2-2.24,6.41,6.41,0,0,0-3.3-.81,8.19,8.19,0,0,0-6.47,3.12,7.91,7.91,0,0,0-1.57,3.45l-1.7,9.06a7.39,7.39,0,0,0,.26,3.73,5,5,0,0,0,2.06,2.58,7,7,0,0,0,3.8.93,10,10,0,0,0,3-.44,7.88,7.88,0,0,0,2.55-1.3,6.63,6.63,0,0,0,1.79-2.11h14.27a20.19,20.19,0,0,1-4.83,7.86,22.59,22.59,0,0,1-8.09,5.15A30.53,30.53,0,0,1,789.06,933.78Z" transform="translate(-46.7 -723.08)"/><path class="cls-1" d="M850,889.52l-1.92,11.32H819.4l1.93-11.32Zm-21.4-10.42H844.2L837.57,919a3.36,3.36,0,0,0,.06,1.51,1.48,1.48,0,0,0,.81.91,3.71,3.71,0,0,0,1.63.3,9.89,9.89,0,0,0,1.67-.19l1.5-.27.45,11c-.79.23-1.86.49-3.19.78a27.66,27.66,0,0,1-4.62.58,21,21,0,0,1-8.93-1.16,8.37,8.37,0,0,1-4.76-4.43,12.79,12.79,0,0,1-.46-7.54Z" transform="translate(-46.7 -723.08)"/><path class="cls-1" d="M864.69,933l9.62-58h15.74l-7.48,45.28H906L903.86,933Z" transform="translate(-46.7 -723.08)"/><path class="cls-1" d="M922.42,933.67a16.86,16.86,0,0,1-7.09-1.37,8.64,8.64,0,0,1-4.3-4.19,11.84,11.84,0,0,1-.61-7.12,15.75,15.75,0,0,1,2.24-6.09,14.21,14.21,0,0,1,4.08-4.13,19.34,19.34,0,0,1,5.47-2.47,32.2,32.2,0,0,1,6.44-1.12,60.11,60.11,0,0,0,6-.71,9.71,9.71,0,0,0,3.43-1.16,3,3,0,0,0,1.36-2v-.11a2.59,2.59,0,0,0-.9-2.61,5,5,0,0,0-3.18-.9,7.28,7.28,0,0,0-3.81,1,5,5,0,0,0-2.19,3H915a17.47,17.47,0,0,1,3.72-7.32,20,20,0,0,1,7.5-5.38,28.33,28.33,0,0,1,11.2-2,27.44,27.44,0,0,1,8.15,1.09,16.69,16.69,0,0,1,5.82,3,10.67,10.67,0,0,1,3.25,4.53,10.87,10.87,0,0,1,.44,5.62l-5,29.77H935.44l1-6.11h-.34a16,16,0,0,1-3.8,3.93,14.46,14.46,0,0,1-4.59,2.18A20.11,20.11,0,0,1,922.42,933.67Zm6.8-9.85a8.44,8.44,0,0,0,3.45-.74,8,8,0,0,0,2.91-2.12,6.58,6.58,0,0,0,1.56-3.37l.57-3.62a13.07,13.07,0,0,1-1.38.47c-.5.14-1,.28-1.55.41s-1.11.25-1.7.37l-1.83.34a10.23,10.23,0,0,0-3.14.92,5.55,5.55,0,0,0-2,1.55,4.52,4.52,0,0,0-.88,2.05,2.91,2.91,0,0,0,.84,2.76A4.55,4.55,0,0,0,929.22,923.82Z" transform="translate(-46.7 -723.08)"/><path class="cls-1" d="M988.88,914,993,889.52h15.63L1001.33,933H986.5l1.36-8.26h-.45a14.91,14.91,0,0,1-6,6.49,17.11,17.11,0,0,1-8.84,2.34,13.16,13.16,0,0,1-7.62-2.1,11.22,11.22,0,0,1-4.33-5.77,17.22,17.22,0,0,1-.51-8.44l4.64-27.73h15.63L976.31,914a6.78,6.78,0,0,0,.84,5.07,4.87,4.87,0,0,0,4.26,1.84,7.35,7.35,0,0,0,3.52-.84,7,7,0,0,0,2.6-2.38A8.79,8.79,0,0,0,988.88,914Z" transform="translate(-46.7 -723.08)"/><path class="cls-1" d="M1029.07,908.54,1025,933h-15.62l7.24-43.47h14.83l-1.35,8.26h.45a15.21,15.21,0,0,1,6-6.49,17,17,0,0,1,8.79-2.34,13.23,13.23,0,0,1,7.67,2.1,11.22,11.22,0,0,1,4.33,5.77,16.76,16.76,0,0,1,.45,8.43L1053.18,933h-15.62l4.07-24.45a6.66,6.66,0,0,0-.77-5.07,4.94,4.94,0,0,0-4.32-1.84,7.27,7.27,0,0,0-3.47.84,7.1,7.1,0,0,0-2.6,2.37A9.31,9.31,0,0,0,1029.07,908.54Z" transform="translate(-46.7 -723.08)"/><path class="cls-1" d="M1081.6,933.78q-7.08,0-11.66-2.81a15,15,0,0,1-6.43-7.87,22.85,22.85,0,0,1-.71-11.73,27.92,27.92,0,0,1,4.6-11.73,24.34,24.34,0,0,1,9.06-7.87,27.38,27.38,0,0,1,12.61-2.82,22.32,22.32,0,0,1,10.68,2.31,13.4,13.4,0,0,1,6.14,6.51,17.21,17.21,0,0,1,.95,9.86h-14.49a7.63,7.63,0,0,0-1.09-5.21,4.55,4.55,0,0,0-3.89-1.81,6.64,6.64,0,0,0-3.83,1.18,9.36,9.36,0,0,0-3,3.53,19.42,19.42,0,0,0-1.79,5.93,17.91,17.91,0,0,0-.13,5.93,6.07,6.07,0,0,0,1.75,3.54,4.88,4.88,0,0,0,3.36,1.18,6.66,6.66,0,0,0,3.24-.81,7.43,7.43,0,0,0,2.57-2.38,11.59,11.59,0,0,0,1.66-3.83h14.49a23.19,23.19,0,0,1-4.33,10,21.61,21.61,0,0,1-8.29,6.56A27.14,27.14,0,0,1,1081.6,933.78Z" transform="translate(-46.7 -723.08)"/><path class="cls-1" d="M1128.92,908.54,1124.84,933h-15.62l9.62-58h15.06l-3.74,22.75h.46a15.81,15.81,0,0,1,5.94-6.49,16.24,16.24,0,0,1,8.66-2.34,13.18,13.18,0,0,1,7.64,2.1,11.22,11.22,0,0,1,4.33,5.77,17,17,0,0,1,.48,8.43L1153,933h-15.62l4.07-24.45a6.7,6.7,0,0,0-.8-5.07,4.91,4.91,0,0,0-4.29-1.84,7.33,7.33,0,0,0-3.5.84,7.1,7.1,0,0,0-2.6,2.37A9,9,0,0,0,1128.92,908.54Z" transform="translate(-46.7 -723.08)"/><path class="cls-1" d="M1182.13,887.71l2.15-12.68h50.38l-2.16,12.68h-17.43L1207.6,933h-15.51l7.47-45.28Z" transform="translate(-46.7 -723.08)"/><path class="cls-1" d="M1226.62,933l7.24-43.47H1249l-1.36,8.26h.46a15.5,15.5,0,0,1,4.89-6.71,10.82,10.82,0,0,1,6.43-2.12,11.56,11.56,0,0,1,2,.16,17.51,17.51,0,0,1,1.88.41L1261,902.88a10.73,10.73,0,0,0-2.74-.61,27.47,27.47,0,0,0-2.92-.19,9,9,0,0,0-4.23,1,9.89,9.89,0,0,0-3.34,2.88,10.36,10.36,0,0,0-1.82,4.35L1242.24,933Z" transform="translate(-46.7 -723.08)"/><path class="cls-1" d="M1271.11,933.67a16.79,16.79,0,0,1-7.09-1.37,8.61,8.61,0,0,1-4.3-4.19,11.77,11.77,0,0,1-.61-7.12,15.91,15.91,0,0,1,2.23-6.09,14.47,14.47,0,0,1,4.08-4.13,19.4,19.4,0,0,1,5.48-2.47,32.07,32.07,0,0,1,6.44-1.12,60.11,60.11,0,0,0,6-.71,9.57,9.57,0,0,0,3.42-1.16,2.9,2.9,0,0,0,1.36-2v-.11a2.6,2.6,0,0,0-.89-2.61,5,5,0,0,0-3.18-.9,7.24,7.24,0,0,0-3.81,1,4.9,4.9,0,0,0-2.19,3h-14.38a17.24,17.24,0,0,1,3.72-7.32,20,20,0,0,1,7.5-5.38,28.25,28.25,0,0,1,11.19-2,27.47,27.47,0,0,1,8.16,1.09,16.73,16.73,0,0,1,5.81,3,10.69,10.69,0,0,1,3.26,4.53,10.87,10.87,0,0,1,.43,5.62l-5,29.77h-14.6l1-6.11h-.34a15.89,15.89,0,0,1-3.81,3.93,14.31,14.31,0,0,1-4.58,2.18A20.16,20.16,0,0,1,1271.11,933.67Zm6.79-9.85a8.52,8.52,0,0,0,3.46-.74,8,8,0,0,0,2.91-2.12,6.75,6.75,0,0,0,1.56-3.37l.56-3.62a12.14,12.14,0,0,1-1.37.47c-.5.14-1,.28-1.56.41s-1.1.25-1.69.37l-1.83.34a10.14,10.14,0,0,0-3.14.92,5.55,5.55,0,0,0-2,1.55,4.41,4.41,0,0,0-.88,2.05,2.93,2.93,0,0,0,.83,2.76A4.55,4.55,0,0,0,1277.9,923.82Z" transform="translate(-46.7 -723.08)"/><path class="cls-1" d="M1327,933.78q-7.08,0-11.67-2.81a15.06,15.06,0,0,1-6.42-7.87,22.85,22.85,0,0,1-.71-11.73,27.92,27.92,0,0,1,4.6-11.73,24.34,24.34,0,0,1,9.06-7.87,27.38,27.38,0,0,1,12.61-2.82,22.32,22.32,0,0,1,10.68,2.31,13.4,13.4,0,0,1,6.14,6.51,17.3,17.3,0,0,1,1,9.86h-14.49a7.63,7.63,0,0,0-1.09-5.21,4.57,4.57,0,0,0-3.89-1.81,6.67,6.67,0,0,0-3.84,1.18,9.34,9.34,0,0,0-3,3.53,19.69,19.69,0,0,0-1.8,5.93,17.88,17.88,0,0,0-.12,5.93,6,6,0,0,0,1.75,3.54,4.88,4.88,0,0,0,3.36,1.18,6.66,6.66,0,0,0,3.24-.81,7.43,7.43,0,0,0,2.57-2.38,11.59,11.59,0,0,0,1.66-3.83h14.49a23.19,23.19,0,0,1-4.33,10,21.69,21.69,0,0,1-8.29,6.56A27.14,27.14,0,0,1,1327,933.78Z" transform="translate(-46.7 -723.08)"/><path class="cls-1" d="M1354.54,933l9.63-58h15.62l-9.62,58Zm15.74-10.3,3.17-18.57h2l13-14.6h17.55l-21.4,22.75h-4.42Zm11.1,10.3-7.14-17.21,12.12-11.09,12.9,28.3Z" transform="translate(-46.7 -723.08)"/><path class="cls-1" d="M1402.88,933l7.25-43.47h15.62L1418.51,933Zm15.74-48a6.64,6.64,0,0,1-5.12-2.11,5.61,5.61,0,0,1-1.45-5,8.12,8.12,0,0,1,3.12-5.06,9.05,9.05,0,0,1,5.77-2.08,6.6,6.6,0,0,1,5.1,2.08,5.79,5.79,0,0,1,1.41,5.06,7.94,7.94,0,0,1-3,5A8.93,8.93,0,0,1,1418.62,885Z" transform="translate(-46.7 -723.08)"/><path class="cls-1" d="M1446.24,908.54,1442.17,933h-15.63l7.25-43.47h14.83l-1.36,8.26h.45a15.23,15.23,0,0,1,6-6.49,17,17,0,0,1,8.79-2.34,13.25,13.25,0,0,1,7.67,2.1,11.27,11.27,0,0,1,4.33,5.77,16.76,16.76,0,0,1,.45,8.43L1470.36,933h-15.63l4.08-24.45a6.61,6.61,0,0,0-.78-5.07,4.93,4.93,0,0,0-4.31-1.84,7.24,7.24,0,0,0-3.47.84,7,7,0,0,0-2.61,2.37A9.62,9.62,0,0,0,1446.24,908.54Z" transform="translate(-46.7 -723.08)"/><path class="cls-1" d="M1496.17,949.75a28.21,28.21,0,0,1-10.91-1.83,13.67,13.67,0,0,1-6.4-5,11,11,0,0,1-1.71-7.12h15.06a2.77,2.77,0,0,0,.82,1.94,4.54,4.54,0,0,0,2.12,1.1,12.46,12.46,0,0,0,3.17.36,9.62,9.62,0,0,0,5.29-1.43,6.6,6.6,0,0,0,2.75-4.91l1.24-7.36h-.45a11.64,11.64,0,0,1-3.2,3.75,14.55,14.55,0,0,1-4.61,2.35,18.62,18.62,0,0,1-5.55.8,15.3,15.3,0,0,1-8.16-2.15,12.13,12.13,0,0,1-5.1-6.82q-1.58-4.66-.32-12.2a32.33,32.33,0,0,1,4.58-12.79,21.43,21.43,0,0,1,7.56-7.22,18.09,18.09,0,0,1,8.57-2.29,12.07,12.07,0,0,1,5.47,1.12,9.48,9.48,0,0,1,3.56,3,11.23,11.23,0,0,1,1.84,4.06h.34l1.25-7.58H1529l-7.25,43.36a17.12,17.12,0,0,1-4.31,9.1,22.16,22.16,0,0,1-8.94,5.77A35.87,35.87,0,0,1,1496.17,949.75Zm5.21-28.42a6.76,6.76,0,0,0,3.9-1.2,9.71,9.71,0,0,0,3-3.46,16.77,16.77,0,0,0,1.73-5.42,16.1,16.1,0,0,0,.06-5.53,6.29,6.29,0,0,0-1.79-3.54,4.9,4.9,0,0,0-3.48-1.23,6.51,6.51,0,0,0-3.87,1.23,9.65,9.65,0,0,0-2.92,3.54,18.36,18.36,0,0,0-1.7,5.53,16.12,16.12,0,0,0-.08,5.48,5.93,5.93,0,0,0,1.72,3.42A4.94,4.94,0,0,0,1501.38,921.33Z" transform="translate(-46.7 -723.08)"/></svg>